<?xml version="1.0" encoding="UTF-8"?>
<svg version="1.1" viewBox="0 0 1062.4 531.2" xmlns="http://www.w3.org/2000/svg" xmlns:cc="http://creativecommons.org/ns#" xmlns:dc="http://purl.org/dc/elements/1.1/" xmlns:rdf="http://www.w3.org/1999/02/22-rdf-syntax-ns#" xmlns:xlink="http://www.w3.org/1999/xlink">
 <metadata>
  <rdf:RDF>
   <cc:Work rdf:about="">
    <dc:format>image/svg+xml</dc:format>
    <dc:type rdf:resource="http://purl.org/dc/dcmitype/StillImage"/>
    <dc:title/>
   </cc:Work>
  </rdf:RDF>
 </metadata>
 <desc>European flag</desc>
 <defs>
  <g id="s">
   <g id="c">
    <path id="t" transform="rotate(18 3.1569 -.5)" d="m0 0v1h0.5z"/>
    <use transform="scale(-1,1)" width="100%" height="100%" xlink:href="#t"/>
   </g>
   <g id="a">
    <use transform="rotate(72)" width="100%" height="100%" xlink:href="#c"/>
    <use transform="rotate(144)" width="100%" height="100%" xlink:href="#c"/>
   </g>
   <use transform="scale(-1,1)" width="100%" height="100%" xlink:href="#a"/>
  </g>
 </defs>
 <rect width="1062.4" height="531.2" fill="#039" stroke-width="1.1359"/>
 <g transform="matrix(30 0 0 30 520.71 263.51)" fill="#fc0">
  <use y="-6" width="100%" height="100%" xlink:href="#s"/>
  <use y="6" width="100%" height="100%" xlink:href="#s"/>
  <g id="l">
   <use x="-6" width="100%" height="100%" xlink:href="#s"/>
   <use transform="rotate(216 -2.3442 -2.1107)" width="100%" height="100%" xlink:href="#s"/>
   <use transform="rotate(144 -2.1107 -2.3442)" width="100%" height="100%" xlink:href="#s"/>
   <use transform="rotate(72 -4.6626 -2.0759)" width="100%" height="100%" xlink:href="#s"/>
   <use transform="rotate(72 -5.0759 .5335)" width="100%" height="100%" xlink:href="#s"/>
  </g>
  <use transform="scale(-1,1)" width="100%" height="100%" xlink:href="#l"/>
 </g>
</svg>
